<?xml version="1.0" encoding="iso-8859-1"?>
<!-- Generator: Adobe Illustrator 19.0.0, SVG Export Plug-In . SVG Version: 6.00 Build 0)  -->
<svg version="1.1" id="Layer_1" xmlns="http://www.w3.org/2000/svg" xmlns:xlink="http://www.w3.org/1999/xlink" x="0px" y="0px"
	 viewBox="0 0 512 512" style="enable-background:new 0 0 512 512;" xml:space="preserve">
<path style="fill:#8D472E;" d="M256.112,287.09c-7.244,0.055-14.075-2.714-19.236-7.797c-3.557-3.504-3.6-9.226-0.096-12.784
	c3.502-3.555,9.226-3.599,12.783-0.096c1.72,1.695,3.997,2.618,6.411,2.599c2.414-0.018,4.678-0.976,6.371-2.696
	c3.504-3.557,9.227-3.601,12.783-0.098c3.558,3.504,3.601,9.226,0.099,12.784C270.144,284.161,263.354,287.034,256.112,287.09z"/>
<path style="fill:#658577;" d="M458.876,360.231c-10.221-41.106-16.06-85.067-16.06-126.645l0,0H256.002l-84.368,98.831
	l84.368,106.062c61.52,0,123.04-12.026,181.438-36.078C454.043,395.561,463.209,377.656,458.876,360.231z"/>
<path style="fill:#6F9A8A;" d="M69.189,233.585L69.189,233.585c0,41.579-5.839,85.539-16.06,126.645
	c-4.333,17.426,4.833,35.331,21.435,42.169c58.398,24.052,119.918,36.078,181.438,36.078V233.585H69.189z"/>
<path style="fill:#B7CC8C;" d="M347.063,408.906c-6.373-7.339-13.616-13.898-21.569-19.517
	c-19.881-14.046-44.187-22.224-70.385-22.024c-26.199,0.2-50.377,8.748-70.041,23.095c-7.867,5.739-15.009,12.409-21.269,19.844
	c-17.174,20.396-27.7,46.555-28.269,75.124c11.649,5.521,23.748,10.24,36.217,14.116c3.525,1.096,7.081,2.121,10.665,3.078
	c0.47,0.125,0.942,0.248,1.414,0.371c23.103,6.038,47.366,9.188,72.386,8.997c25.02-0.19,49.232-3.71,72.24-10.1
	c0.47-0.13,0.94-0.259,1.408-0.393c3.569-1.011,7.109-2.092,10.617-3.241c6.109-2.002,12.114-4.232,18.028-6.635
	c3.61-1.467,7.194-2.984,10.725-4.599c2.432-1.112,4.849-2.253,7.244-3.433C375.471,455.033,364.545,429.038,347.063,408.906z"/>
<path style="opacity:0.3;fill:#4D5B59;enable-background:new    ;" d="M286.538,444.269c-4.012-0.036-7.893,0.488-11.572,1.498
	c-12.611,3.461-25.854,3.563-38.516,0.294c-3.694-0.953-7.582-1.419-11.593-1.322c-22.819,0.55-41.317,20.535-41.144,43.36
	l0.002,0.339l0.111,14.556c23.103,6.038,47.366,9.188,72.386,8.997c25.02-0.19,49.232-3.71,72.24-10.1l-0.111-14.556l-0.002-0.339
	C328.164,464.171,309.363,444.471,286.538,444.269z"/>
<path style="fill:#84B3C8;" d="M163.798,410.304c-17.174,20.396-27.7,46.555-28.269,75.124c11.649,5.521,23.748,10.24,36.217,14.116
	c3.525,1.096,7.081,2.121,10.665,3.078c0.47,0.125,0.943,0.248,1.414,0.371l-0.157-20.582
	C183.468,456.093,176.246,431.47,163.798,410.304z"/>
<path style="fill:#5C889F;" d="M347.063,408.906c-3.299,5.809-6.2,11.872-8.68,18.145c-6.638,16.786-10.233,35.098-10.087,54.257
	l0.157,20.582c0.47-0.13,0.94-0.259,1.408-0.393c3.569-1.011,7.109-2.092,10.617-3.241c6.109-2.002,12.114-4.232,18.028-6.635
	c3.61-1.467,7.194-2.984,10.725-4.599c2.432-1.112,4.849-2.253,7.244-3.433C375.471,455.033,364.545,429.038,347.063,408.906z"/>
<path style="opacity:0.3;fill:#4D5B59;enable-background:new    ;" d="M347.063,408.906c-0.019-0.022-0.039-0.042-0.058-0.064
	c-6.359-7.312-13.582-13.85-21.511-19.453c-19.881-14.046-44.187-22.224-70.385-22.024c-26.199,0.2-50.377,8.748-70.041,23.096
	c-7.336,5.353-14.033,11.523-19.981,18.36c21.796,6.348,45.568,10.254,67.757,11.886c8.086,0.595,15.966,0.898,23.452,0.898
	c6.246,0,12.765-0.21,19.45-0.628c11.862-0.741,24.254-2.15,36.613-4.251c9.878-1.679,19.923,2.179,25.929,10.2
	c0.031,0.042,0.063,0.084,0.094,0.125c12.459,16.819,19.918,37.568,20.089,60.053l0.035,4.517c3.61-1.467,7.194-2.984,10.725-4.599
	c2.432-1.112,4.849-2.253,7.244-3.433C375.471,455.033,364.545,429.038,347.063,408.906z"/>
<g>
	<path style="fill:#F8E5B5;" d="M256.018,177.029c0.322-1.02,0.651-2.037,0.988-3.053
		C256.67,174.992,256.34,176.009,256.018,177.029z"/>
	<path style="fill:#F8E5B5;" d="M254.747,181.215c0.289-0.987,0.583-1.972,0.887-2.955
		C255.33,179.243,255.036,180.228,254.747,181.215z"/>
	<path style="fill:#F8E5B5;" d="M257.333,172.992c0.45-1.333,0.91-2.662,1.387-3.987
		C258.243,170.33,257.783,171.659,257.333,172.992z"/>
	<path style="fill:#F8E5B5;" d="M253.285,186.436c0.358-1.356,0.734-2.707,1.121-4.057
		C254.019,183.729,253.643,185.08,253.285,186.436z"/>
</g>
<path style="fill:#ECCE93;" d="M497.016,232.803c-0.983-27.516-22.909-50.22-50.378-52.116c-10.259-0.707-19.947,1.461-28.376,5.749
	c-0.474-1.79-0.981-3.574-1.505-5.354c-0.209-0.71-0.423-1.417-0.64-2.125c-0.307-1.003-0.623-2.003-0.945-3.003
	c-0.563-1.746-1.151-3.486-1.756-5.22c-0.054-0.154-0.107-0.31-0.161-0.464c-0.145-0.41-0.282-0.822-0.429-1.231
	c-0.006,0.002-0.012,0.006-0.019,0.01c-9.654-26.857-24.749-52.074-43.822-72.848c-29.911-32.578-69.526-54.248-112.981-54.248
	c-71.153,0-132.015,58.094-156.822,127.05c0,0.001-0.001,0.004-0.001,0.005c-0.477,1.325-0.936,2.655-1.387,3.987
	c-0.111,0.328-0.217,0.656-0.327,0.983c-0.337,1.016-0.668,2.033-0.988,3.053c-0.129,0.41-0.258,0.82-0.384,1.231
	c-0.304,0.983-0.598,1.969-0.887,2.955c-0.113,0.388-0.23,0.775-0.341,1.164c-0.387,1.35-0.763,2.702-1.121,4.057l4.456,136.584
	c4.518,18.419,10.472,34.045,17.934,41.262c27.485,26.585,93.065,39.244,140.163,39.244s112.091-12.659,139.575-39.244
	c12.4-11.993,20.642-47.194,25.038-79.877c6.701,2.964,14.109,4.622,21.907,4.622C473.43,289.027,498.119,263.662,497.016,232.803z"
	/>
<path style="fill:#F8E5B5;" d="M336.006,251.84c-4.089,0-8.22-0.183-12.395-0.552c-23.206-2.045-41.934-9.552-51.032-13.845
	c-12.631-5.958-20.907-18.818-21.081-32.762c-0.504-40.621-6.951-50.285-13.508-56.702c-0.125-0.121-0.274-0.256-0.421-0.392
	c-7.087-6.567-22.016-12.015-38.049-8.445c-22.121,4.921-40.895,24.973-54.295,57.986c-0.043,0.108-0.088,0.216-0.134,0.323
	c-5.679,13.502-24.013,15.794-32.983,4.211c-1.081-1.396-2.229-2.738-3.437-4.023c-0.383-0.407-0.765-0.816-1.161-1.211
	c-0.039-0.039-0.078-0.075-0.116-0.113c-0.527-0.523-1.064-1.037-1.611-1.538c-0.069-0.063-0.14-0.124-0.209-0.187
	c-0.523-0.474-1.053-0.938-1.595-1.391c-0.084-0.071-0.171-0.139-0.256-0.21c-0.533-0.44-1.073-0.873-1.622-1.292
	c-0.092-0.07-0.183-0.137-0.275-0.207c-0.551-0.416-1.109-0.822-1.677-1.217c-0.092-0.064-0.184-0.127-0.276-0.19
	c-0.575-0.395-1.157-0.78-1.748-1.152c-0.088-0.055-0.176-0.111-0.264-0.165c-0.601-0.376-1.211-0.74-1.828-1.092
	c-0.081-0.046-0.162-0.093-0.243-0.139c-0.633-0.357-1.275-0.701-1.924-1.034c-0.061-0.031-0.122-0.064-0.183-0.094
	c-8.426-4.275-18.108-6.434-28.358-5.719c-27.457,1.914-49.361,24.617-50.34,52.122c-1.098,30.856,23.59,56.215,54.201,56.215
	c7.798,0,15.205-1.658,21.907-4.622c1.751,13.015,4.114,26.425,7.104,38.614c32.274,17.736,83.307,26.27,121.94,26.27
	c47.099,0,112.091-12.659,139.575-39.244c9.69-9.373,16.841-32.92,21.603-58.362c0.005-0.028,0.011-0.055,0.016-0.083
	c0.677-3.769-3.059-6.807-6.71-5.65C362.269,249.865,349.373,251.84,336.006,251.84z"/>
<circle style="fill:#ECCE93;" cx="69.184" cy="234.794" r="18.079"/>
<circle style="fill:#E1B872;" cx="442.811" cy="234.794" r="18.079"/>
<path style="fill:#8BAD9C;" d="M216.574,9.693C132.334,26.623,69.189,96.69,69.189,180.554c9.8,0,18.985,2.613,26.919,7.159
	c8.637,4.726,19.296,10.787,23.991-0.783c37.607-92.655,108.587-84.546,135.904-59.232V41.95
	C256.002,21.159,236.958,5.596,216.574,9.693z"/>
<path style="fill:#6F9A8A;" d="M295.431,9.693c-20.384-4.097-39.429,11.467-39.429,32.259v85.748
	c0.322,0.298,0.642,0.595,0.952,0.898c14.438,14.126,21.127,32.844,21.66,75.749c0.046,3.683,2.204,7.003,5.536,8.574
	c15.438,7.283,60.954,24.199,105.551-3.602c4.96-3.091,9.317-7.027,13.282-11.32c9.907-10.723,24.082-17.442,39.832-17.442
	C442.816,96.69,379.671,26.623,295.431,9.693z"/>
<path style="fill:#658577;" d="M440.59,153.5c-23.545,0.653-45.82,11.59-60.733,29.784c-22.893,16.382-46.823,15.917-63.872,12.095
	c-6.174-1.384-10.642-6.733-11.118-13.042c-2.295-30.449-9.609-54.204-28.948-73.125c-2.902-2.84-6.048-5.46-9.396-7.852
	c-6.524-4.663-10.521-12.08-10.521-20.1V41.95c0-18.422-14.955-32.729-32.542-32.902v0.36l-0.991-0.362
	c-1.942,0.04-3.912,0.247-5.896,0.646c-4.622,0.929-9.177,2.027-13.665,3.27l12.689,12.689c5.034,5.034,7.863,11.862,7.863,18.983
	l0,0c0,19.937-14.023,37.16-33.565,41.111c-0.264,0.053-0.528,0.107-0.792,0.163c-19.407,4.044-37.195,13.464-52.874,27.999
	c-6.124,5.677-11.862,12.101-17.198,19.242c-10.505,14.062-27.433,21.516-44.953,20.464c-0.886-0.053-1.774-0.092-2.662-0.117
	c-1.466,8.819-2.227,17.856-2.227,27.059c9.8,0,18.985,2.613,26.919,7.159c8.637,4.726,19.296,10.787,23.991-0.783
	c38.05-93.744,110.268-84.343,136.856-58.334c14.438,14.126,21.127,32.844,21.66,75.749c0.046,3.683,2.204,7.003,5.536,8.574
	c15.438,7.283,60.954,24.199,105.551-3.602c4.96-3.091,9.317-7.027,13.282-11.32c9.907-10.723,24.082-17.442,39.832-17.442
	C442.816,171.352,442.055,162.318,440.59,153.5z"/>
<g>
	<path style="fill:#ECCE93;" d="M169.296,268.597l-12.053,0.092c-4.992,0.039-9.07-3.979-9.108-8.971
		c-0.039-4.992,3.977-9.069,8.971-9.108l12.053-0.092c4.992-0.039,9.07,3.979,9.108,8.971
		C178.305,264.481,174.289,268.559,169.296,268.597z"/>
	<path style="fill:#ECCE93;" d="M354.899,267.18l-12.053,0.092c-4.992,0.039-9.069-3.979-9.108-8.971
		c-0.039-4.992,3.977-9.07,8.971-9.108l12.053-0.092c4.992-0.039,9.069,3.979,9.108,8.971
		C363.907,263.064,359.891,267.142,354.899,267.18z"/>
</g>
<path d="M222.858,225.751c0-4.992-4.047-9.039-9.039-9.039h-36.158c-4.992,0-9.039,4.047-9.039,9.039s4.047,9.039,9.039,9.039
	c-4.992,0-9.039,4.047-9.039,9.039c0,4.992,4.047,9.039,9.039,9.039h36.158c4.992,0,9.039-4.047,9.039-9.039
	c0-4.992-4.047-9.039-9.039-9.039C218.811,234.79,222.858,230.743,222.858,225.751z"/>
<path d="M178.662,192.859c0.926-0.007,1.867-0.157,2.791-0.466c9.123-3.041,18.775-3.117,27.915-0.218
	c4.752,1.509,9.84-1.123,11.35-5.884c1.509-4.758-1.124-9.84-5.884-11.349c-12.807-4.062-26.327-3.958-39.098,0.3
	c-4.737,1.579-7.295,6.698-5.717,11.434C171.289,190.485,174.852,192.888,178.662,192.859z"/>
<path d="M236.78,266.509c-3.504,3.557-3.46,9.28,0.096,12.784c5.161,5.083,11.992,7.852,19.236,7.797
	c7.244-0.055,14.032-2.929,19.114-8.09c3.502-3.557,3.459-9.28-0.099-12.784c-3.555-3.502-9.279-3.459-12.783,0.098
	c-1.693,1.72-3.957,2.678-6.371,2.696c-2.414,0.018-4.692-0.905-6.411-2.599C246.006,262.91,240.282,262.954,236.78,266.509z"/>
<path d="M442.816,316.145c4.993,0,9.039-4.047,9.039-9.039v-9.695c30.622-4.4,54.236-30.799,54.236-62.62
	c0-31.893-23.723-58.337-54.447-62.646c-1.937-39.427-17.428-77.518-44.124-108.068C379.443,31.946,340.269,9.485,297.211,0.831
	c-12.391-2.489-25.109,0.674-34.885,8.68c-2.357,1.931-4.471,4.086-6.324,6.42c-1.852-2.335-3.966-4.49-6.324-6.42
	c-9.776-8.006-22.49-11.169-34.886-8.68c-37.882,7.614-72.243,25.506-99.368,51.741c-27.282,26.387-45.333,59.369-52.203,95.384
	c-0.935,4.904,2.282,9.637,7.186,10.572c4.899,0.929,9.637-2.283,10.572-7.186C93.653,84.903,147.576,32.781,218.354,18.555
	c7.063-1.417,14.301,0.382,19.869,4.943c5.554,4.549,8.739,11.275,8.739,18.454c0,4.992,4.047,9.039,9.039,9.039
	c4.992,0,9.039-4.047,9.039-9.039c0-7.178,3.185-13.905,8.739-18.454c5.567-4.561,12.808-6.364,19.867-4.943
	c78.27,15.731,135.844,79.61,139.891,153.659c-6.725,0.987-13.217,3.031-19.378,6.166c-4.449,2.263-6.221,7.706-3.957,12.156
	c2.263,4.449,7.705,6.22,12.156,3.957c6.388-3.251,13.27-4.898,20.454-4.898c24.922,0,45.197,20.275,45.197,45.197
	c0,21.827-15.553,40.088-36.158,44.287v-8.129c0-4.992-4.046-9.039-9.039-9.039c-4.993,0-9.039,4.047-9.039,9.039v8.127
	c-1.005-0.205-2.002-0.447-2.99-0.721c1.889-15.876,2.99-31.741,2.99-43.564c0-4.985,4.054-9.039,9.039-9.039
	c4.985,0,9.039,4.054,9.039,9.039c0,4.992,4.047,9.039,9.039,9.039c4.992,0,9.039-4.047,9.039-9.039
	c0-14.954-12.165-27.118-27.118-27.118c-14.954,0-27.118,12.165-27.118,27.118c0,12.87-1.401,30.966-3.747,48.409
	c-5.05,37.547-13.619,66.127-22.365,74.585c-24.645,23.839-87.068,36.702-133.29,36.702c-46.507,0-109.234-12.862-133.879-36.702
	c-8.743-8.458-17.313-37.036-22.365-74.585c-2.347-17.442-3.747-35.539-3.747-48.409c0-14.954-12.165-27.118-27.118-27.118
	s-27.118,12.165-27.118,27.118c0,4.992,4.047,9.039,9.039,9.039s9.039-4.047,9.039-9.039c0-4.985,4.054-9.039,9.039-9.039
	s9.039,4.054,9.039,9.039c0,11.822,1.102,27.688,2.99,43.564c-0.99,0.274-1.985,0.516-2.99,0.721v-8.127
	c0-4.992-4.046-9.039-9.039-9.039s-9.039,4.047-9.039,9.039v8.129c-20.605-4.199-36.158-22.46-36.158-44.287
	c0-24.922,20.275-45.197,45.197-45.197c7.184,0,14.066,1.649,20.454,4.898c0.342,0.174,0.692,0.316,1.044,0.444
	c0.341,0.256,0.697,0.498,1.082,0.709l0.406,0.223c7.281,3.987,16.343,8.948,25.33,5.747c3.408-1.214,8.078-4.157,10.969-11.284
	c19.877-48.972,47.471-64.463,67.12-68.834c24.054-5.351,44.265,3.568,54.263,12.832c0.263,0.243,0.527,0.486,0.775,0.729
	c11.592,11.343,18.408,26.335,18.943,69.4c0.088,7.078,4.296,13.608,10.718,16.637c2.456,1.158,5.46,2.466,8.897,3.791
	c-0.028,0.286-0.043,0.575-0.043,0.868c0,4.992,4.047,9.039,9.039,9.039c-4.992,0-9.039,4.047-9.039,9.039
	c0,4.992,4.047,9.039,9.039,9.039h36.158c4.992,0,9.039-4.047,9.039-9.039c0-4.992-4.047-9.039-9.039-9.039
	c1.472,0,2.858-0.359,4.085-0.983c17.41-0.395,36.748-4.785,56.055-16.822c4.236-2.641,5.53-8.216,2.888-12.453
	c-2.642-4.236-8.216-5.531-12.453-2.888c-40.232,25.084-81.175,10.523-96.913,3.098c-0.216-0.101-0.351-0.298-0.353-0.511
	c-0.534-42.982-7.14-65.232-24.381-82.1c-0.366-0.358-0.746-0.711-1.126-1.063c-17.393-16.118-45.058-22.879-70.478-17.219
	c-23.872,5.312-57.12,23.447-79.945,79.683c-0.201,0.498-0.378,0.822-0.505,1.021c-2.262-0.11-7.679-3.075-10.36-4.544l-0.411-0.225
	c-0.413-0.227-0.838-0.405-1.268-0.56c-0.416-0.312-0.857-0.6-1.337-0.844c-8.953-4.555-18.592-6.864-28.654-6.864
	c-34.891,0-63.276,28.385-63.276,63.276c0,31.821,23.614,58.218,54.236,62.62v9.695c0,4.992,4.046,9.039,9.039,9.039
	s9.039-4.047,9.039-9.039v-9.707c1.842-0.264,3.672-0.583,5.48-1.011c4.5,28.55,12.457,61.156,26.141,74.39
	c12.307,11.904,31.045,21.112,52.299,27.823c-5.33,5.598-10.117,11.629-14.328,18.014c-23.712-5.682-47.17-13.248-69.814-22.574
	c-12.6-5.189-19.373-18.491-16.106-31.629c2.466-9.918,4.713-20.171,6.676-30.476c0.934-4.904-2.284-9.637-7.188-10.571
	c-4.904-0.934-9.637,2.285-10.571,7.188c-1.901,9.978-4.074,19.902-6.46,29.497c-5.36,21.556,6.147,44.216,26.766,52.708
	c21.928,9.031,44.592,16.483,67.523,22.233c-7.444,15.896-11.66,33.309-12.154,51.276c-0.137,4.99,3.797,9.147,8.787,9.284
	c0.084,0.002,0.169,0.004,0.253,0.004c4.876,0,8.896-3.886,9.031-8.791c0.855-31.05,14.618-60.189,37.922-80.649
	c24.743,5.708,51.082,8.45,73.812,8.45c22.547,0,48.685-2.729,73.268-8.41c23.275,20.458,37.023,49.585,37.876,80.611
	c0.135,4.905,4.154,8.79,9.031,8.79c0.084,0,0.169-0.001,0.253-0.004c4.99-0.137,8.925-4.294,8.787-9.285
	c-0.494-17.964-4.711-35.379-12.155-51.276c22.931-5.75,45.596-13.202,67.524-22.234c20.619-8.492,32.126-31.152,26.766-52.708
	c-2.385-9.594-4.559-19.518-6.46-29.497c-0.934-4.904-5.67-8.126-10.571-7.188c-4.904,0.934-8.122,5.667-7.188,10.571
	c1.963,10.305,4.21,20.558,6.676,30.476c3.266,13.138-3.507,26.441-16.107,31.629c-22.644,9.326-46.102,16.894-69.814,22.576
	c-4.204-6.372-8.98-12.392-14.298-17.981c21.216-6.713,39.943-15.932,52.271-27.856c13.684-13.235,21.641-45.842,26.141-74.39
	c1.808,0.427,3.639,0.746,5.479,1.011v9.707C433.777,312.098,437.823,316.145,442.816,316.145z"/>
<path d="M337.207,431.035c-4.779-1.456-9.826,1.238-11.28,6.014c-4.412,14.491-6.649,29.57-6.649,44.817
	c0,7.117,0.503,14.33,1.497,21.44c0.63,4.52,4.503,7.791,8.941,7.791c0.416,0,0.838-0.029,1.261-0.088
	c4.945-0.691,8.393-5.259,7.703-10.202c-0.877-6.284-1.322-12.656-1.322-18.941c0-13.461,1.973-26.769,5.865-39.55
	C344.676,437.54,341.983,432.49,337.207,431.035z"/>
<path d="M174.798,431.035c-4.775,1.455-7.469,6.505-6.014,11.28c3.892,12.782,5.865,26.089,5.865,39.55
	c0,6.283-0.445,12.655-1.322,18.94c-0.691,4.944,2.758,9.512,7.703,10.202c0.424,0.059,0.845,0.088,1.261,0.088
	c4.438,0,8.31-3.27,8.941-7.791c0.993-7.11,1.497-14.323,1.497-21.44c0-15.248-2.237-30.327-6.649-44.817
	C184.624,432.276,179.573,429.581,174.798,431.035z"/>
<g>
</g>
<g>
</g>
<g>
</g>
<g>
</g>
<g>
</g>
<g>
</g>
<g>
</g>
<g>
</g>
<g>
</g>
<g>
</g>
<g>
</g>
<g>
</g>
<g>
</g>
<g>
</g>
<g>
</g>
</svg>
