<?xml version="1.0" encoding="iso-8859-1"?>
<!-- Generator: Adobe Illustrator 19.0.0, SVG Export Plug-In . SVG Version: 6.00 Build 0)  -->
<svg version="1.1" id="Layer_1" xmlns="http://www.w3.org/2000/svg" xmlns:xlink="http://www.w3.org/1999/xlink" x="0px" y="0px"
	 viewBox="0 0 512.002 512.002" style="enable-background:new 0 0 512.002 512.002;" xml:space="preserve">
<path style="fill:#535572;" d="M74.838,251.578v57.18l0,0c0,0.613,0.023,1.218,0.031,1.829c0.009,0.554,0.012,1.108,0.027,1.661
	c1.204,51.455,28.9,96.353,69.99,121.569h0.209c22.285,13.681,48.488,21.571,76.531,21.571h34.375l181.164-203.809L74.838,251.578
	L74.838,251.578z"/>
<path style="fill:#46475A;" d="M256.001,251.578v203.809h34.375c28.043,0,54.247-7.89,76.531-21.571h0.209
	c41.09-25.216,68.787-70.114,69.99-121.569c0.015-0.553,0.018-1.107,0.027-1.661c0.008-0.61,0.031-1.217,0.031-1.829l0,0v-57.18
	L256.001,251.578L256.001,251.578z"/>
<path style="fill:#E8C6B3;" d="M342.087,415.81c-5.934-6.94-12.691-13.154-20.123-18.489
	c-18.575-13.337-41.351-21.195-65.964-21.195s-47.388,7.857-65.964,21.195c-7.431,5.336-14.189,11.549-20.123,18.489
	c-16.28,19.038-26.356,43.537-27.095,70.371c10.904,5.271,22.236,9.79,33.922,13.52c3.304,1.054,6.637,2.044,9.997,2.969
	c0.442,0.121,0.883,0.24,1.326,0.359c21.66,5.838,44.432,8.971,67.936,8.971s46.276-3.133,67.936-8.971
	c0.442-0.119,0.884-0.237,1.326-0.359c3.361-0.925,6.693-1.914,9.997-2.969c5.754-1.837,11.411-3.888,16.984-6.104
	c3.401-1.353,6.78-2.753,10.109-4.244c2.293-1.027,4.571-2.081,6.829-3.173C368.444,459.347,358.367,434.849,342.087,415.81z"/>
<path style="opacity:0.3;fill:#AB5034;enable-background:new    ;" d="M284.975,448.599c-3.768-0.062-7.419,0.402-10.882,1.325
	c-11.872,3.161-24.313,3.161-36.185,0c-3.464-0.923-7.113-1.387-10.882-1.325c-21.441,0.353-38.962,18.995-38.962,40.439v-5.343
	v19.336c21.66,5.838,44.432,8.971,67.936,8.971s46.276-3.133,67.936-8.971v-19.336v5.343
	C323.938,467.593,306.417,448.952,284.975,448.599z"/>
<g>
	<path style="fill:#CE9276;" d="M169.915,415.81c-16.28,19.038-26.356,43.537-27.095,70.371c10.904,5.271,22.236,9.79,33.922,13.52
		c3.304,1.054,6.637,2.044,9.997,2.969c0.442,0.121,0.883,0.24,1.326,0.359v-19.336C188.065,458.966,181.457,435.784,169.915,415.81
		z"/>
	<path style="fill:#CE9276;" d="M342.087,415.81c-3.14,5.434-5.909,11.109-8.285,16.984c-6.357,15.722-9.864,32.898-9.864,50.898
		v19.336c0.442-0.119,0.884-0.237,1.326-0.359c3.361-0.925,6.693-1.914,9.997-2.969c5.754-1.837,11.411-3.888,16.984-6.104
		c3.401-1.353,6.78-2.753,10.109-4.244c2.293-1.027,4.571-2.081,6.829-3.173C368.444,459.347,358.367,434.849,342.087,415.81z"/>
</g>
<path style="opacity:0.3;fill:#AB5034;enable-background:new    ;" d="M346.583,489.355v6.415c1.895-0.707,3.785-1.427,5.661-2.173
	c3.401-1.353,6.78-2.753,10.109-4.244c2.293-1.027,4.571-2.081,6.829-3.173c-0.738-26.835-10.815-51.333-27.095-70.371
	c-5.934-6.94-12.691-13.154-20.123-18.489c-18.575-13.337-41.351-21.195-65.964-21.195c-24.613,0-47.388,7.857-65.964,21.195
	c-1.535,1.102-3.034,2.251-4.51,3.426l0.114,0.14c17.302,21.322,42.948,33.55,70.359,33.55c15.051,0,29.844-3.784,42.971-10.849
	c7.558-4.068,16.965-2.63,22.852,3.618c2.64,2.802,5.111,5.779,7.403,8.923C340.582,451.705,346.583,470.11,346.583,489.355z"/>
<path style="fill:#E1B872;" d="M112.702,210.809l-11.041,16.604l71.133,159.102c24.184,14.949,52.686,23.581,83.207,23.581
	c71.843,0,132.51-47.805,151.974-113.329c7.043,3.68,15.037,5.763,23.529,5.763c28.76,0,51.96-23.834,50.918-52.82
	c-0.718-20.024-13.241-37.323-30.847-44.932c-4.613-1.994-9.571-3.332-14.761-3.869c-0.566-0.068-1.144-0.113-1.721-0.159
	l-73.722-73.722c-42.073-42.073-110.286-42.073-152.359,0l0,0h-12.529C150.212,127.028,112.702,164.538,112.702,210.809
	L112.702,210.809"/>
<path style="fill:#ECCE93;" d="M374.762,237.288c-1.256,0.032-2.51,0.048-3.765,0.048c-37.735,0-73.908-13.734-101.854-38.673
	c-0.434-0.378-0.922-0.825-1.421-1.291c-1.625-1.481-3.255-3.036-4.78-4.562c-7.977-7.918-16.977-16.838-23.058-22.787
	c-6.423-6.29-20.273-11.614-35.51-8.442c-20.949,4.36-38.742,23.098-51.454,54.189c-2.614,6.395-7.809,11.597-14.254,14.272
	c-6.316,2.623-13.189,2.651-19.347,0.077c-8.063-3.378-12.147-12.472-9.517-20.68c-2.192-1.096-4.32-2.282-6.239-3.292
	c-6.93-3.521-14.754-5.525-23.064-5.525c-1.189,0-2.378,0.045-3.589,0.125c-25.804,1.778-46.401,23.11-47.329,48.959
	c-1.042,28.986,22.159,52.821,50.918,52.821c8.492,0,16.486-2.083,23.529-5.763c11.195,37.688,36.023,69.509,68.766,89.748
	c16.779,4.285,33.476,6.597,49.239,6.597c84.734,0,153.929-66.487,158.288-150.136C380.484,239.827,377.913,237.208,374.762,237.288
	L374.762,237.288z"/>
<g>
	<circle style="fill:#D5A150;" cx="80.495" cy="251.58" r="16.984"/>
	<circle style="fill:#D5A150;" cx="431.499" cy="251.58" r="16.984"/>
</g>
<path style="fill:#46475A;" d="M284.512,10.279c-28.533-8.028-56.817,13.519-56.817,43.151c-40.649,0-77.447,16.475-104.078,43.117
	c-26.642,26.631-43.117,63.43-43.117,104.078c8.311,0,16.135,2.004,23.064,5.525c8.413,4.427,20.755,12.353,25.578,0.464
	c35.746-88.068,103.592-79.248,128.558-54.802c5.718,5.593,14.097,13.893,23.257,22.985c1.325,1.325,2.683,2.616,4.065,3.872
	c0.328,0.306,0.668,0.611,1.008,0.917c29.541,26.405,69.623,37.41,108.257,30.096c6.511-1.234,12.817-3.318,19.011-5.695
	c6.703-2.57,14.074-3.77,21.796-3.238c0.577,0.045,1.155,0.091,1.721,0.159l0.034-0.283
	C432.002,109.636,369.104,34.057,284.512,10.279z"/>
<path style="fill:#535572;" d="M272.272,110.091c4.501,17.608,13.73,33.753,26.691,46.686c0.998,0.998,2.074,2.023,3.205,3.053
	l0.16,0.146c0.263,0.246,0.471,0.431,0.648,0.591c18.663,16.682,42.7,25.854,67.712,25.854h0.145c0.05,0,0.1,0,0.149,0
	c6.4,0,12.444-0.012,17.742-1.572c2.236-0.659,4.307-1.276,6.243-1.854c4.323-1.291,8.056-2.405,11.469-3.323
	c12.234-3.294,21.537-3.958,27.597-3.857c-13.857-79.71-72.75-143.958-149.521-165.537c-14.953-4.206-29.825-0.28-40.604,8.666
	L272.272,110.091z"/>
<path d="M217.757,195.059c-12.002-3.907-24.704-3.907-36.732,0.001c-4.46,1.449-6.902,6.24-5.452,10.7
	c1.165,3.588,4.495,5.871,8.074,5.871c0.871,0,1.755-0.135,2.626-0.418c8.592-2.791,17.661-2.793,26.226-0.005
	c4.454,1.452,9.252-0.985,10.704-5.446C224.654,201.303,222.217,196.511,217.757,195.059z"/>
<circle cx="199.383" cy="251.58" r="16.984"/>
<circle cx="312.61" cy="251.58" r="16.984"/>
<path d="M256.001,300.71c-6.805,0-13.202-2.651-18.014-7.462c-3.316-3.316-3.316-8.694,0.001-12.01
	c3.316-3.315,8.694-3.315,12.009,0c1.603,1.604,3.736,2.488,6.004,2.488c2.268,0,4.401-0.883,6.004-2.488
	c3.318-3.316,8.695-3.316,12.009,0c3.318,3.316,3.318,8.694,0.001,12.01C269.204,298.06,262.806,300.71,256.001,300.71z"/>
<g>
	<path style="fill:#E1B872;" d="M174.478,282.715h-11.323c-4.691,0-8.492-3.802-8.492-8.492c0-4.69,3.801-8.492,8.492-8.492h11.323
		c4.691,0,8.492,3.802,8.492,8.492C182.97,278.913,179.168,282.715,174.478,282.715z"/>
	<path style="fill:#E1B872;" d="M348.848,282.715h-11.323c-4.691,0-8.492-3.802-8.492-8.492c0-4.69,3.801-8.492,8.492-8.492h11.323
		c4.691,0,8.492,3.802,8.492,8.492C357.34,278.913,353.538,282.715,348.848,282.715z"/>
</g>
<path style="fill:#656890;" d="M86.988,176.567c8.622,0.862,14.996,1.565,18.48,2.772c3.967,1.393,8.276-0.257,10.282-3.911
	c10.357-18.868,23.033-34.029,37.674-45.064c17.95-13.528,38.731-20.679,60.099-20.679c3.417,0,8.327,0.498,13.33,1.158
	c9.226,1.216,16.582-7.588,13.779-16.462L227.693,53.43c-40.649,0-77.447,16.475-104.078,43.117
	c-20.692,20.683-35.241,47.501-40.711,77.49c-0.129,0.708-0.162,1.409-0.125,2.095C83.933,176.261,85.428,176.411,86.988,176.567z"
	/>
<path d="M332.289,435.94c-4.491-1.368-9.231,1.163-10.597,5.65c-4.145,13.613-6.247,27.779-6.247,42.104
	c0,6.686,0.472,13.463,1.406,20.142c0.592,4.246,4.23,7.319,8.399,7.319c0.391,0,0.787-0.027,1.184-0.083
	c4.246-0.592,7.318-4.229,7.319-8.397c0-0.392-0.027-0.788-0.083-1.188c-0.824-5.904-1.242-11.89-1.242-17.794
	c0-12.646,1.854-25.148,5.51-37.156c0.251-0.824,0.37-1.657,0.37-2.475C338.311,440.422,335.952,437.055,332.289,435.94z"/>
<path d="M179.713,435.94c-3.663,1.115-6.021,4.482-6.02,8.123c0,0.819,0.119,1.651,0.37,2.475c3.656,12.008,5.51,24.509,5.51,37.156
	c0,5.903-0.418,11.889-1.242,17.794c-0.055,0.4-0.083,0.796-0.083,1.188c0.001,4.168,3.073,7.805,7.319,8.397
	c0.399,0.055,0.794,0.083,1.184,0.083c4.169,0,7.807-3.072,8.399-7.319c0.933-6.679,1.406-13.456,1.406-20.142
	c0-14.324-2.102-28.49-6.247-42.104C188.945,437.104,184.199,434.572,179.713,435.94z"/>
<path d="M490.908,249.405c-0.522-14.604-6.458-28.491-16.713-39.104c-8.687-8.989-19.828-14.941-31.887-17.171
	c-7.752-90.2-70.522-166.477-158.151-191.114c-16.159-4.543-33.11-1.326-46.508,8.824c-11.202,8.486-18.422,20.671-20.516,34.252
	c-32.96,1.677-64.812,13.853-90.44,34.713c-27.264,22.193-46.404,53.218-53.896,87.364c-1.005,4.581,1.893,9.109,6.474,10.115
	c4.58,1.004,9.109-1.893,10.115-6.474c13.85-63.121,70.88-108.934,135.607-108.934c4.69,0,8.492-3.802,8.492-8.492
	c0-11.49,5.256-22.063,14.421-29.007c9.122-6.911,20.659-9.103,31.655-6.011c80.115,22.524,137.701,91.861,145.639,174.111
	c-5.102,0.539-10.102,1.724-14.945,3.581c-6.958,2.669-12.369,4.297-17.546,5.278c-36.745,6.96-74.472-3.843-101.948-28.935
	c-0.537-0.49-1.071-0.984-1.598-1.482c-0.485-0.46-0.967-0.923-1.445-1.392c-15.537-15.211-26.529-34.193-31.9-55.233
	c-1.161-4.544-5.78-7.287-10.329-6.128c-4.544,1.159-7.288,5.784-6.128,10.329c1.241,4.86,2.743,9.623,4.497,14.276
	c-14.033-5.966-30.593-7.735-46.415-4.442c-22.77,4.741-54.469,21.615-76.173,75.089c-0.207,0.51-0.385,0.811-0.496,0.97
	c-2.269,0.154-8.392-3.141-11.06-4.579c-0.755-0.408-1.49-0.803-2.198-1.175c-0.033-0.018-0.067-0.035-0.101-0.052
	c-9.565-4.868-20.315-7.046-31.093-6.306c-14.577,1.005-28.256,7.407-38.517,18.025c-10.256,10.613-16.191,24.5-16.713,39.104
	c-0.583,16.3,5.321,31.729,16.623,43.443c7.949,8.238,17.822,13.861,28.639,16.483c0.1,26.811,7.136,53.199,20.38,76.346
	c12.931,22.6,31.503,41.75,53.709,55.377c1.07,0.657,2.228,1.042,3.398,1.185c-5.785,13.728-9.092,28.537-9.51,43.709
	c-0.129,4.689,3.567,8.594,8.255,8.723c0.08,0.002,0.159,0.003,0.238,0.003c4.581,0,8.357-3.65,8.484-8.258
	c0.867-31.494,16.168-61.185,41.152-80.308c19.947,8.223,41.4,12.48,63.54,12.48c22.139,0,43.592-4.256,63.54-12.48
	c24.985,19.124,40.285,48.813,41.152,80.308c0.127,4.608,3.903,8.258,8.484,8.258c0.079,0,0.159-0.001,0.238-0.003
	c4.689-0.129,8.384-4.034,8.255-8.723c-0.93-33.764-16.124-65.743-41.257-87.942c7.035-3.884,13.832-8.297,20.347-13.233
	c25.728-19.494,45.511-46.457,56.414-76.653c4.998,1.618,10.211,2.568,15.467,2.824c-0.639,40.948-19.154,79.138-51.044,105.059
	c-3.639,2.957-4.192,8.306-1.233,11.945c1.678,2.065,4.126,3.136,6.594,3.136c1.883,0,3.776-0.623,5.351-1.902
	c36.296-29.501,57.168-73.158,57.338-119.851c10.817-2.622,20.689-8.245,28.637-16.482
	C485.588,281.135,491.491,265.706,490.908,249.405z M150.998,427.934c-0.489-0.508-1.042-0.969-1.671-1.355
	c-40.702-24.978-65.23-68.084-65.963-115.634c5.255-0.256,10.467-1.206,15.462-2.824c10.904,30.195,30.688,57.158,56.414,76.653
	c6.514,4.936,13.312,9.349,20.347,13.233C165.797,406.655,157.515,416.788,150.998,427.934z M462.064,281.055
	c-8.078,8.372-18.93,12.982-30.56,12.982c-4.63,0-9.117-0.744-13.414-2.182c3.255-13.139,4.922-26.665,4.922-40.278
	c0-4.683,3.809-8.492,8.492-8.492c4.683,0,8.492,3.809,8.492,8.492c0,4.69,3.802,8.492,8.492,8.492c4.69,0,8.492-3.802,8.492-8.492
	c0-14.048-11.428-25.476-25.476-25.476s-25.476,11.428-25.476,25.476c0,13.468-1.794,26.843-5.333,39.752
	c-0.144,0.524-0.23,1.051-0.272,1.574c-0.236,0.461-0.442,0.941-0.591,1.446c-18.75,63.149-77.895,107.253-143.83,107.253
	s-125.08-44.104-143.83-107.253c-0.149-0.505-0.356-0.985-0.591-1.446c-0.042-0.523-0.128-1.05-0.272-1.574
	c-3.538-12.91-5.333-26.285-5.333-39.752c0-14.048-11.428-25.476-25.476-25.476s-25.476,11.428-25.476,25.476
	c0,4.69,3.802,8.492,8.492,8.492s8.492-3.802,8.492-8.492c0-4.683,3.809-8.492,8.492-8.492c4.683,0,8.492,3.809,8.492,8.492
	c0,13.612,1.667,27.139,4.922,40.278c-4.297,1.439-8.783,2.182-13.414,2.182c-11.63,0-22.482-4.611-30.56-12.982
	c-8.073-8.366-12.29-19.391-11.872-31.044c0.765-21.401,18.084-39.319,39.426-40.791c7.692-0.529,15.358,1.017,22.174,4.474
	c0.641,0.337,1.306,0.696,1.987,1.063c6.857,3.698,16.25,8.764,25.038,5.599c3.222-1.159,7.628-3.931,10.316-10.552
	c18.889-46.536,45.173-60.951,63.898-64.849c21.448-4.465,40.995,3.275,50.853,12.925c5.194,5.084,13.073,12.873,23.422,23.149
	c0.274,0.272,0.555,0.536,0.83,0.804c0.369,0.36,0.737,0.719,1.11,1.076c1.008,0.962,2.026,1.911,3.059,2.839
	c0.062,0.057,0.121,0.115,0.185,0.171c0.048,0.043,0.1,0.079,0.148,0.121c3.904,3.481,7.983,6.712,12.214,9.689
	c-3.467,1.937-5.202,6.111-3.927,10.032c1.166,3.589,4.494,5.871,8.074,5.871c0.87,0,1.754-0.135,2.626-0.418
	c4.268-1.386,8.681-2.089,13.118-2.09c0.003,0,0.007,0,0.01,0c1.518,0,3.05,0.104,4.572,0.271
	c16.806,7.217,34.983,11.002,53.443,11.001c8.384,0,16.831-0.779,25.227-2.37c6.13-1.161,12.634-3.101,20.468-6.107
	c5.79-2.222,11.906-3.13,18.172-2.696c21.343,1.472,38.661,19.39,39.426,40.791C474.352,261.664,470.136,272.689,462.064,281.055z"
	/>
<g>
</g>
<g>
</g>
<g>
</g>
<g>
</g>
<g>
</g>
<g>
</g>
<g>
</g>
<g>
</g>
<g>
</g>
<g>
</g>
<g>
</g>
<g>
</g>
<g>
</g>
<g>
</g>
<g>
</g>
</svg>
